<svg width="37" height="39" viewBox="0 0 37 39" fill="none" xmlns="http://www.w3.org/2000/svg">
<path fill-rule="evenodd" clip-rule="evenodd" d="M12.3293 13.0041V17.8155H12.3278C12.3278 17.968 12.2623 18.1206 12.1344 18.231C11.8937 18.4373 11.5236 18.4184 11.3073 18.1889L9.54796 16.3251L7.91204 16.9483C7.84046 16.9773 7.76125 16.9948 7.67899 16.9948C7.35608 16.9948 7.0956 16.7449 7.0956 16.4384V10.1223L4.22132 8.53889V21.4214C4.22132 21.4431 4.22436 21.4591 4.23046 21.4693C4.23807 21.4824 4.25178 21.494 4.27006 21.5042C4.28072 21.51 4.28986 21.5158 4.30052 21.5216L10.3844 24.8715L10.3859 24.8729V24.8715L15.9655 27.9439V15.0064L12.3293 13.0041ZM27.6282 4.09631C28.0014 4.09631 28.3426 4.24158 28.5909 4.4769L28.5955 4.48126C28.8422 4.71804 28.9945 5.04198 28.9945 5.39788C28.9945 5.75377 28.8422 6.07917 28.5955 6.31599L28.5909 6.32035C28.3426 6.55568 28.003 6.70093 27.6298 6.70093C27.2566 6.70093 26.9154 6.55566 26.6671 6.32035L26.6625 6.31599C26.4158 6.0792 26.2635 5.75526 26.2635 5.39937C26.2635 5.04056 26.4158 4.71517 26.6625 4.47981C26.6762 4.46673 26.6915 4.45366 26.7067 4.44204C26.9519 4.22559 27.2763 4.09631 27.6282 4.09631ZM27.7638 5.2657C27.7303 5.23374 27.6831 5.21486 27.6282 5.21486C27.581 5.21486 27.5399 5.22939 27.5079 5.25408L27.4927 5.26861C27.4576 5.30202 27.4363 5.34705 27.4363 5.3979C27.4363 5.44874 27.4576 5.49523 27.4896 5.52719L27.4927 5.53009C27.5262 5.56205 27.5734 5.58094 27.6282 5.58094C27.6831 5.58094 27.7303 5.5606 27.7638 5.53009L27.7668 5.52719C27.8003 5.49523 27.8201 5.4502 27.8201 5.3979C27.8201 5.3456 27.7988 5.30057 27.7668 5.26861L27.7638 5.2657ZM31.1285 8.54584C31.5017 8.54584 31.8429 8.69111 32.0912 8.92643L32.0958 8.93079C32.3425 9.16757 32.4949 9.49151 32.4949 9.84741C32.4949 10.2048 32.341 10.5301 32.0943 10.7655L32.0958 10.767C31.849 11.0023 31.5078 11.1476 31.1316 11.1476C30.7553 11.1476 30.4142 11.0023 30.1674 10.767C29.9206 10.5316 29.7683 10.2062 29.7683 9.84741C29.7683 9.48858 29.9206 9.16321 30.1674 8.92785C30.1811 8.91332 30.1963 8.9017 30.2116 8.88863C30.4522 8.67654 30.7751 8.54584 31.1285 8.54584ZM31.2626 9.71523C31.2291 9.68327 31.1819 9.66439 31.127 9.66439C31.0798 9.66439 31.0387 9.67891 31.0067 9.70216L30.9914 9.71668C30.9564 9.75009 30.9351 9.79513 30.9351 9.84597C30.9351 9.89682 30.9564 9.94185 30.9914 9.97526C31.0265 10.0087 31.0737 10.029 31.127 10.029C31.1803 10.029 31.2275 10.0087 31.2626 9.97526L31.2641 9.97671L31.2656 9.97526C31.2991 9.9433 31.3189 9.89827 31.3189 9.84597C31.3189 9.79367 31.2976 9.74864 31.2656 9.71668L31.2626 9.71523ZM25.4349 2.50141H27.0495C27.0906 2.50141 27.1242 2.49705 27.15 2.48688C27.1729 2.47817 27.2003 2.45928 27.2293 2.43168L28.3701 1.34362C28.6474 1.07923 29.0129 0.945591 29.3785 0.945591C29.7425 0.945591 30.1066 1.07778 30.3853 1.34362L30.3868 1.34507L30.3884 1.34362L31.5292 2.43168C31.5582 2.45928 31.5856 2.47817 31.6084 2.48688C31.6343 2.49705 31.6679 2.50141 31.709 2.50141H33.3236C33.715 2.50141 34.0715 2.65394 34.3289 2.90089L34.3319 2.90379C34.5893 3.15075 34.7493 3.48921 34.7493 3.86255V5.40238C34.7493 5.4416 34.7538 5.47356 34.7645 5.49825C34.7736 5.52004 34.7934 5.54619 34.8224 5.57379L35.9633 6.66185C36.2405 6.92624 36.3806 7.27487 36.3806 7.62351C36.3806 7.97215 36.242 8.31934 35.9633 8.58517L34.8224 9.67323C34.7934 9.70083 34.7736 9.72698 34.7645 9.74876C34.7538 9.77346 34.7493 9.80542 34.7493 9.84464V11.3845C34.7493 11.7593 34.5893 12.0992 34.3319 12.3461C34.3182 12.3592 34.3045 12.3708 34.2893 12.3824C34.0349 12.6076 33.6952 12.7442 33.3235 12.7442H31.709C31.6678 12.7442 31.6343 12.7485 31.6084 12.7587C31.5856 12.7674 31.5582 12.7863 31.5292 12.8139L30.3883 13.9019C30.2771 14.008 30.1507 14.0937 30.0167 14.1576L29.974 21.4718C29.9725 21.6912 29.9146 21.8975 29.8049 22.0747C29.6953 22.2548 29.5384 22.4045 29.3404 22.5134L21.6894 26.7261V26.7247L21.6878 26.7261L17.2187 29.187C17.2096 29.1928 17.1989 29.1986 17.1883 29.2044C17.1182 29.2436 17.0466 29.2756 16.9735 29.3003C16.8669 29.4049 16.7176 29.4702 16.5531 29.4702C16.3886 29.4702 16.2393 29.4049 16.1327 29.3003C16.0596 29.2756 15.988 29.2436 15.9179 29.2044L9.7994 25.8371V25.8356L3.71555 22.4858C3.70489 22.4814 3.69423 22.4756 3.68204 22.4698C3.4825 22.3609 3.32562 22.2083 3.21595 22.0296C3.10475 21.8466 3.04688 21.6403 3.04688 21.4224V7.94904C3.04688 7.87059 3.05449 7.7936 3.06972 7.71806C3.03012 7.58006 3.04688 7.42753 3.12761 7.29389C3.20834 7.15879 3.33933 7.06873 3.48556 7.03241C3.54496 6.98302 3.61199 6.93798 3.68205 6.90022L9.79787 3.53291V3.53436L9.79939 3.53291L15.9168 0.165604C16.1178 0.0551987 16.3341 0 16.5504 0C16.7667 0 16.9815 0.0552025 17.1841 0.165604L20.89 2.20662H20.8915L23.2708 3.51692C23.2815 3.52128 23.2921 3.52709 23.3043 3.5329L24.0096 3.92077V3.86121C24.0096 3.48788 24.1695 3.14794 24.4269 2.90246L24.43 2.89955C24.6889 2.6555 25.0435 2.50141 25.4349 2.50141ZM28.8454 14.2028C28.6717 14.1359 28.5103 14.0372 28.3701 13.9035L27.2292 12.8155C27.2003 12.7879 27.1729 12.769 27.15 12.7603C27.1241 12.7501 27.0906 12.7457 27.0495 12.7457H25.4349C25.0419 12.7457 24.6855 12.5932 24.4266 12.3477C24.1691 12.1022 24.0092 11.7608 24.0092 11.386V11.2248L17.1381 15.0091V27.9481L21.103 25.7647V25.7633L28.7524 21.5505C28.7707 21.5404 28.7844 21.5288 28.792 21.5171C28.7997 21.5041 28.8042 21.4881 28.8042 21.4692L28.8454 14.2028ZM24.0093 9.93613L16.5533 14.0414L12.9144 12.0381L22.9538 6.51081L22.7954 6.66189C22.5181 6.92628 22.378 7.2749 22.378 7.62355C22.378 7.97219 22.5166 8.31938 22.7954 8.5852L23.9363 9.67326C23.9652 9.70086 23.985 9.72701 23.9941 9.7488C24.0048 9.7735 24.0094 9.80545 24.0094 9.84468L24.0093 9.93613ZM27.0497 3.62004H25.4351C25.365 3.62004 25.3026 3.64619 25.2569 3.68831L25.2554 3.68977C25.2112 3.73335 25.1838 3.79436 25.1838 3.85973V5.39955C25.1838 5.58114 25.1487 5.75401 25.0756 5.91815C25.004 6.08521 24.9004 6.23193 24.7649 6.36121L23.624 7.44927C23.5752 7.49576 23.5509 7.55822 23.5509 7.62069C23.5509 7.68315 23.5752 7.74562 23.624 7.79211L24.7649 8.88017C24.8989 9.008 25.0025 9.15618 25.0756 9.32323C25.1472 9.48738 25.1838 9.66171 25.1838 9.84182V11.3816C25.1838 11.4485 25.2127 11.508 25.2584 11.5516C25.3041 11.5952 25.3681 11.6228 25.4366 11.6228H27.0512C27.2416 11.6228 27.4229 11.6562 27.595 11.7245C27.7686 11.7928 27.924 11.8915 28.0595 12.0208L29.2004 13.1089C29.2492 13.1554 29.3147 13.1786 29.3786 13.1786C29.4441 13.1786 29.5081 13.1554 29.5569 13.1089L30.6977 12.0208C30.8318 11.893 30.9872 11.7942 31.1623 11.7245C31.3344 11.6562 31.5172 11.6228 31.7061 11.6228H33.3207C33.3831 11.6228 33.4395 11.601 33.4837 11.5676L33.4989 11.5516C33.5446 11.508 33.5735 11.447 33.5735 11.3816V9.84182C33.5735 9.66024 33.6086 9.48737 33.6817 9.32323C33.7533 9.15763 33.8568 9.00945 33.9924 8.88017L35.1333 7.79211C35.182 7.74562 35.2064 7.68315 35.2064 7.62069C35.2064 7.55822 35.182 7.49721 35.1333 7.44927L33.9924 6.36121C33.8584 6.23338 33.7548 6.0852 33.6817 5.91815C33.6101 5.75399 33.5735 5.57967 33.5735 5.39956V3.85973C33.5735 3.7929 33.5461 3.73335 33.5019 3.68977L33.5004 3.68831C33.4547 3.64619 33.3923 3.62004 33.3222 3.62004H31.7076C31.5172 3.62004 31.336 3.58663 31.1638 3.51835C30.9887 3.45008 30.8348 3.35129 30.6993 3.222L29.5584 2.13394L29.5599 2.13249C29.5112 2.08746 29.4457 2.06422 29.3802 2.06422C29.3147 2.06422 29.2507 2.08746 29.202 2.13394L28.0611 3.222C27.927 3.34984 27.7717 3.44862 27.5965 3.51835C27.4213 3.58663 27.2401 3.62004 27.0497 3.62004ZM31.4915 4.81706L26.4375 9.63706C26.209 9.85496 26.209 10.2094 26.4375 10.4288C26.6659 10.6467 27.0376 10.6467 27.2676 10.4288L29.7443 8.0667L29.7642 8.05508C29.8632 8.00133 29.9378 7.92289 29.9881 7.83282L32.3231 5.60586C32.5516 5.38796 32.5516 5.03349 32.3231 4.81416C32.0916 4.59771 31.7199 4.59771 31.4915 4.81706ZM4.8036 7.5728L10.386 4.49895V4.4975L16.5018 1.13019C16.5186 1.12148 16.5353 1.11712 16.5536 1.11712C16.5703 1.11712 16.5886 1.12148 16.6054 1.13019L19.4309 2.68601L7.67774 9.15606L4.8036 7.5728ZM20.5977 3.33108L22.6876 4.48162C22.6967 4.48743 22.7074 4.49324 22.718 4.49905L23.4903 4.92468L21.5193 6.00984L21.5147 6.01274L11.4858 11.5345C11.2909 11.6246 11.1553 11.8163 11.1553 12.0371V16.3588L10.1454 15.2882L10.1439 15.2896C9.98551 15.1211 9.72809 15.0558 9.49502 15.1444L8.26273 15.6136V10.1208L20.0689 3.62029C20.0781 3.61447 20.0887 3.60866 20.0979 3.60285L20.5977 3.33108Z" fill="white"/>
</svg>
