<svg width="53" height="63" viewBox="0 0 53 63" fill="none" xmlns="http://www.w3.org/2000/svg">
<g clip-path="url(#clip0_271_129)">
<path d="M51.6922 18.9632C51.978 17.1376 51.5605 14.841 48.5128 13.2985C47.613 8.75267 45.5556 6.10312 42.3919 5.41473C40.0125 1.69602 36.4569 0.610483 31.8149 2.18269C28.9662 0.0904062 26.1806 -0.197684 23.523 1.32661C19.1642 -0.179403 15.691 0.382279 13.1899 2.99779C13.1668 2.99779 13.1444 2.99779 13.1213 2.99779C10.1042 2.99779 7.81965 4.38592 6.32389 7.13066C2.59541 9.02626 1.12274 12.5054 0.992941 15.1676C0.900587 17.0588 1.46657 18.6991 2.49182 19.6024C2.13239 22.6888 2.74455 25.0837 4.31457 26.7259C5.73732 28.2142 7.92137 28.9568 10.3681 28.8049C13.3372 33.601 17.8051 35.3888 23.6727 34.1311C23.6584 34.273 23.6559 34.4167 23.6659 34.5623C23.7482 35.7544 24.6649 36.9522 26.4689 38.2237C26.4733 38.2268 26.4777 38.23 26.482 38.2325C28.4464 39.5588 29.2009 42.8835 28.7222 48.1524C28.6992 48.6933 28.6386 50.1312 29.6445 50.529C29.7955 50.5889 29.9484 50.6166 30.1013 50.6166C30.9412 50.6166 31.8005 49.7801 32.6186 48.8193C33.846 48.0812 34.5655 46.1068 34.8582 42.6604C35.3081 42.6219 35.7736 42.4694 36.2154 42.2078C36.729 41.9033 37.1595 41.4841 37.4578 41.0087C42.898 41.9222 45.8726 40.2712 47.5743 35.4178C50.2788 34.302 51.8775 31.6266 52.3287 27.4584C53.973 24.007 53.7583 21.1513 51.6922 18.9632ZM50.0972 18.8434L44.6533 24.4735C44.4143 24.3266 44.1529 24.2163 43.8733 24.1488L42.3251 18.2899L48.1609 14.9293C49.7933 15.8692 50.413 17.1313 50.0972 18.8434ZM18.2962 17.1615C18.2962 16.5286 18.806 16.0136 19.4325 16.0136C20.0591 16.0136 20.5689 16.5286 20.5689 17.1615C20.5689 17.7944 20.0591 18.3095 19.4325 18.3095C18.806 18.3095 18.2962 17.7944 18.2962 17.1615ZM29.2882 10.6842L35.8354 11.7061C35.8391 12.5142 36.1911 13.2392 36.7446 13.741L33.1958 20.0973C33.139 20.0935 33.0828 20.0884 33.0254 20.0884C32.8769 20.0884 32.7328 20.1036 32.5911 20.1269L28.4795 11.6809C28.8215 11.418 29.0991 11.0776 29.2882 10.6842ZM41.074 25.1644L35.7274 23.1793C35.7411 23.0683 35.7505 22.9555 35.7505 22.8407C35.7505 22.5949 35.7156 22.3579 35.655 22.1309L40.8974 19.112L42.2577 24.2604C41.7853 24.4464 41.3766 24.7622 41.074 25.1644ZM33.0261 23.9887C32.3996 23.9887 31.8897 23.4737 31.8897 22.8407C31.8897 22.2078 32.3996 21.6928 33.0261 21.6928C33.6526 21.6928 34.1624 22.2078 34.1624 22.8407C34.1624 23.4737 33.6526 23.9887 33.0261 23.9887ZM34.8139 20.7686C34.7764 20.7359 34.7384 20.7037 34.699 20.6728L38.191 14.418C38.3121 14.4344 38.4344 14.4464 38.5598 14.4464C38.6859 14.4464 38.8094 14.4344 38.9311 14.418L40.3726 17.5681L34.8139 20.7686ZM39.6961 11.6935C39.6961 12.3264 39.1863 12.8414 38.5598 12.8414C37.9333 12.8414 37.4235 12.3264 37.4235 11.6935C37.4235 11.0605 37.9333 10.5455 38.5598 10.5455C39.1863 10.5455 39.6961 11.0605 39.6961 11.6935ZM27.9734 9.48897C27.9734 10.1219 27.4636 10.6369 26.8371 10.6369C26.2106 10.6369 25.7008 10.1219 25.7008 9.48897C25.7008 8.85606 26.2106 8.34102 26.8371 8.34102C27.4636 8.34102 27.9734 8.85606 27.9734 9.48897ZM25.498 11.8838C25.8942 12.1108 26.3504 12.2419 26.8371 12.2419C26.8851 12.2419 26.9319 12.2369 26.9787 12.2343L31.1653 20.8342C31.0573 20.9363 30.9581 21.0466 30.8682 21.1652L22.1483 17.3355C22.152 17.2775 22.157 17.2201 22.157 17.1615C22.157 16.5708 21.9704 16.0243 21.6553 15.5754L25.498 11.8838ZM21.5873 18.8396L30.3091 22.6705C30.3054 22.7273 30.3004 22.7834 30.3004 22.8414C30.3004 23.4264 30.4832 23.9685 30.7927 24.4148L25.4474 31.2862L21.0793 19.3496C21.2703 19.2027 21.4406 19.0313 21.5873 18.8396ZM32.0432 25.4058C32.1187 25.4355 32.1961 25.4626 32.2747 25.4853L32.7253 32.4473L26.7753 32.1782L32.0432 25.4058ZM33.8647 25.4588C34.339 25.3031 34.7552 25.0188 35.0766 24.6481L40.5255 26.671C40.5223 26.7221 40.518 26.7732 40.518 26.8248C40.518 27.0965 40.5585 27.3588 40.6315 27.6065L34.2785 31.8554L33.8647 25.4588ZM42.1067 26.8248C42.1067 26.1919 42.6165 25.6769 43.243 25.6769C43.8696 25.6769 44.3794 26.1919 44.3794 26.8248C44.3794 27.4578 43.8696 27.9728 43.243 27.9728C42.6165 27.9722 42.1067 27.4578 42.1067 26.8248ZM46.9803 13.7618L41.7579 16.7694L40.3726 13.7423C40.9311 13.2379 41.2849 12.5073 41.2849 11.6928C41.2849 10.9275 40.9735 10.2347 40.473 9.73546L42.264 7.03358C44.6976 7.66587 46.2427 9.8773 46.9803 13.7618ZM40.9498 6.13149L39.0565 8.98781C38.8949 8.95755 38.7295 8.9399 38.5598 8.9399C37.6207 8.9399 36.7914 9.42215 36.3009 10.154L29.531 9.09687C29.4623 8.61398 29.2707 8.17208 28.9874 7.80393L32.1524 3.76561C36.0787 2.38631 38.9629 3.16169 40.9498 6.13149ZM30.5369 3.24238L27.6889 6.87598C27.4205 6.78647 27.1348 6.73604 26.8365 6.73604C26.7217 6.73604 26.6087 6.74549 26.4976 6.75999L24.6331 2.55336C26.5213 1.61218 28.4645 1.83912 30.5369 3.24238ZM23.0269 2.85595L25.0487 7.41749C24.4764 7.92244 24.112 8.66315 24.112 9.4896C24.112 9.93214 24.2187 10.3495 24.4034 10.7208L20.3817 14.5851C20.2388 14.5315 20.0915 14.488 19.9386 14.459L14.4972 3.94969C16.5502 1.93557 19.3502 1.58003 23.0269 2.85595ZM13.0433 4.60341L18.2607 14.6796C18.0797 14.7673 17.91 14.8732 17.7533 14.9974L7.94009 7.52214C9.12696 5.58682 10.8024 4.62295 13.0433 4.60341ZM2.57981 15.2464C2.68464 13.0923 3.86528 10.2915 6.82373 8.68207L16.841 16.313C16.826 16.359 16.8142 16.4063 16.8017 16.4536L3.55077 18.3965C2.88994 17.8335 2.51179 16.6408 2.57981 15.2464ZM5.45714 25.6107C4.25965 24.3581 3.79788 22.448 4.06122 19.9428L16.8616 18.0661C16.9402 18.2937 17.0457 18.5087 17.1774 18.7047L10.3918 27.1861C8.36317 27.3424 6.57662 26.7814 5.45714 25.6107ZM11.7672 28.0201L18.4142 19.7134C18.7293 19.842 19.0725 19.9145 19.4325 19.9145C19.4856 19.9145 19.5374 19.9094 19.5898 19.9063L24.1488 32.3635C18.567 33.8109 14.506 32.3843 11.7672 28.0201ZM31.7568 47.4678C31.6595 47.5163 31.5734 47.5844 31.5028 47.6676C30.9206 48.3604 30.5419 48.6983 30.3191 48.8616C30.3041 48.7242 30.296 48.53 30.3072 48.2608C30.8476 42.3231 29.8873 38.6076 27.3719 36.903C25.5866 35.6435 25.2764 34.8265 25.2509 34.4507C25.244 34.3543 25.2309 34.092 25.5235 33.7277L32.8289 34.058L33.3287 41.7816C33.041 46.3457 32.1343 47.2793 31.7568 47.4678ZM35.411 40.824C35.2288 40.9318 35.0447 41.0043 34.8731 41.0403L34.3983 33.7006L41.308 29.0791L36.2934 39.7694L36.2965 39.7706C36.2847 39.7965 36.2709 39.8217 36.2616 39.8494C36.1337 40.2201 35.816 40.5845 35.411 40.824ZM38.1792 39.4977L42.8474 29.545C42.9766 29.5639 43.1083 29.5772 43.243 29.5772C43.4683 29.5772 43.6855 29.5463 43.8951 29.4939L46.0917 34.822C44.7057 38.8301 42.5566 40.1344 38.1792 39.4977ZM50.8404 26.8803C50.7986 26.9661 50.7724 27.0587 50.7624 27.1533C50.4161 30.5814 49.301 32.7449 47.3684 33.7441L45.2711 28.6568C45.7029 28.1695 45.9681 27.5284 45.9681 26.8248C45.9681 26.4132 45.8758 26.0242 45.7148 25.6731L50.8179 20.3954C52.1458 22.0584 52.1533 24.1873 50.8404 26.8803Z" fill="#3F1000" stroke="#3F1000" stroke-width="0.546218"/>
</g>
<defs>
<clipPath id="clip0_271_129">
<rect width="52" height="53.0833" fill="white" transform="translate(0.823608 0.432739)"/>
</clipPath>
</defs>
</svg>
