<svg width="37" height="39" viewBox="0 0 37 39" fill="none" xmlns="http://www.w3.org/2000/svg">
<g clip-path="url(#clip0_290_1376)">
<path d="M32.4291 12.7695C32.6001 11.6774 32.3503 10.3037 30.5273 9.38094C29.989 6.66172 28.7583 5.0768 26.8658 4.66501C25.4425 2.44054 23.3156 1.79118 20.5388 2.73166C18.8348 1.48008 17.1685 1.30775 15.5787 2.21956C12.9713 1.31869 10.8937 1.65468 9.3976 3.21924C9.38379 3.21924 9.37036 3.21924 9.35654 3.21924C7.55176 3.21924 6.18519 4.0496 5.29045 5.69146C3.06013 6.82538 2.1792 8.90656 2.10156 10.499C2.04631 11.6303 2.38487 12.6115 2.99817 13.1519C2.78316 14.9981 3.14934 16.4307 4.0885 17.413C4.93957 18.3033 6.24604 18.7476 7.70965 18.6567C9.4857 21.5256 12.1584 22.595 15.6683 21.8427C15.6597 21.9276 15.6582 22.0136 15.6642 22.1007C15.7134 22.8138 16.2618 23.5302 17.3409 24.2908C17.3435 24.2927 17.3461 24.2946 17.3487 24.2961C18.5238 25.0895 18.9751 27.0783 18.6888 30.23C18.675 30.5536 18.6388 31.4137 19.2405 31.6517C19.3308 31.6875 19.4223 31.7041 19.5137 31.7041C20.0162 31.7041 20.5302 31.2037 21.0195 30.629C21.7538 30.1874 22.1842 29.0064 22.3592 26.9448C22.6284 26.9218 22.9068 26.8305 23.1711 26.6741C23.4783 26.4919 23.7359 26.2411 23.9143 25.9568C27.1685 26.5032 28.9479 25.5156 29.9658 22.6124C31.5836 21.9449 32.54 20.3445 32.8098 17.8512C33.7934 15.7866 33.665 14.0784 32.4291 12.7695ZM31.475 12.6979L28.2185 16.0657C28.0756 15.9778 27.9192 15.9118 27.7519 15.8715L26.8258 12.3668L30.3167 10.3565C31.2932 10.9187 31.6639 11.6737 31.475 12.6979ZM12.4521 11.6918C12.4521 11.3132 12.7571 11.0051 13.1319 11.0051C13.5066 11.0051 13.8116 11.3132 13.8116 11.6918C13.8116 12.0704 13.5066 12.3785 13.1319 12.3785C12.7571 12.3785 12.4521 12.0704 12.4521 11.6918ZM19.0274 7.81713L22.9438 8.4284C22.946 8.91183 23.1565 9.34549 23.4876 9.64566L21.3648 13.4479C21.3309 13.4456 21.2973 13.4426 21.2629 13.4426C21.1741 13.4426 21.0879 13.4517 21.0031 13.4656L18.5436 8.41332C18.7482 8.25607 18.9143 8.05244 19.0274 7.81713ZM26.0774 16.479L22.8792 15.2915C22.8874 15.2251 22.893 15.1576 22.893 15.089C22.893 14.9419 22.8721 14.8001 22.8359 14.6644L25.9718 12.8585L26.7855 15.9382C26.503 16.0495 26.2585 16.2384 26.0774 16.479ZM21.2633 15.7757C20.8885 15.7757 20.5836 15.4676 20.5836 15.089C20.5836 14.7104 20.8885 14.4023 21.2633 14.4023C21.6381 14.4023 21.943 14.7104 21.943 15.089C21.943 15.4676 21.6381 15.7757 21.2633 15.7757ZM22.3327 13.8495C22.3103 13.8299 22.2876 13.8107 22.264 13.7922L24.3529 10.0507C24.4253 10.0605 24.4985 10.0676 24.5735 10.0676C24.6489 10.0676 24.7228 10.0605 24.7956 10.0507L25.6579 11.935L22.3327 13.8495ZM25.2532 8.42086C25.2532 8.79946 24.9483 9.10755 24.5735 9.10755C24.1987 9.10755 23.8938 8.79946 23.8938 8.42086C23.8938 8.04226 24.1987 7.73417 24.5735 7.73417C24.9483 7.73417 25.2532 8.04226 25.2532 8.42086ZM18.2409 7.10216C18.2409 7.48077 17.9359 7.78885 17.5611 7.78885C17.1864 7.78885 16.8814 7.48077 16.8814 7.10216C16.8814 6.72356 17.1864 6.41548 17.5611 6.41548C17.9359 6.41548 18.2409 6.72356 18.2409 7.10216ZM16.7601 8.53474C16.9971 8.6705 17.27 8.74893 17.5611 8.74893C17.5899 8.74893 17.6179 8.74591 17.6459 8.74441L20.1502 13.8887C20.0856 13.9498 20.0263 14.0158 19.9725 14.0867L14.7564 11.7958C14.7586 11.7612 14.7616 11.7268 14.7616 11.6918C14.7616 11.3384 14.65 11.0115 14.4615 10.743L16.7601 8.53474ZM14.4208 12.6956L19.6381 14.9872C19.6358 15.0211 19.6328 15.0547 19.6328 15.0894C19.6328 15.4393 19.7422 15.7636 19.9273 16.0306L16.7299 20.1409L14.1169 13.0007C14.2312 12.9128 14.3331 12.8102 14.4208 12.6956ZM20.6754 16.6234C20.7205 16.6411 20.7668 16.6573 20.8139 16.6709L21.0834 20.8355L17.5242 20.6745L20.6754 16.6234ZM21.765 16.6551C22.0487 16.5619 22.2976 16.3919 22.4899 16.1701L25.7493 17.3802C25.7475 17.4108 25.7448 17.4413 25.7448 17.4722C25.7448 17.6348 25.7691 17.7916 25.8128 17.9398L22.0125 20.4814L21.765 16.6551ZM26.6952 17.4722C26.6952 17.0936 27.0002 16.7855 27.3749 16.7855C27.7497 16.7855 28.0547 17.0936 28.0547 17.4722C28.0547 17.8508 27.7497 18.1589 27.3749 18.1589C27.0002 18.1585 26.6952 17.8508 26.6952 17.4722ZM29.6105 9.6581L26.4865 11.4572L25.6579 9.64641C25.992 9.34474 26.2036 8.90769 26.2036 8.42048C26.2036 7.96269 26.0173 7.54827 25.718 7.24961L26.7893 5.63339C28.245 6.01161 29.1693 7.33445 29.6105 9.6581ZM26.0031 5.09377L24.8706 6.80238C24.774 6.78428 24.675 6.77372 24.5735 6.77372C24.0117 6.77372 23.5156 7.06219 23.2222 7.5L19.1726 6.86761C19.1315 6.57876 19.0169 6.31442 18.8475 6.0942L20.7407 3.67854C23.0894 2.85346 24.8146 3.31728 26.0031 5.09377ZM19.7743 3.36555L18.0707 5.53911C17.9102 5.48557 17.7392 5.4554 17.5608 5.4554C17.4921 5.4554 17.4245 5.46106 17.3581 5.46973L16.2427 2.95339C17.3723 2.39039 18.5346 2.52614 19.7743 3.36555ZM15.2819 3.13439L16.4913 5.86304C16.149 6.16509 15.931 6.60817 15.931 7.10254C15.931 7.36726 15.9949 7.6169 16.1054 7.83901L13.6996 10.1506C13.6141 10.1185 13.526 10.0925 13.4346 10.0752L10.1796 3.78865C11.4077 2.58384 13.0826 2.37115 15.2819 3.13439ZM9.30989 4.17969L12.4308 10.2072C12.3226 10.2596 12.2211 10.3229 12.1274 10.3972L6.25724 5.92563C6.96721 4.76796 7.96945 4.19138 9.30989 4.17969ZM3.0508 10.5462C3.11351 9.25763 3.81975 7.5822 5.58945 6.61949L11.5816 11.1842C11.5727 11.2117 11.5656 11.24 11.5581 11.2683L3.63161 12.4305C3.23632 12.0937 3.01011 11.3803 3.0508 10.5462ZM4.77197 16.7459C4.05566 15.9967 3.77943 14.8541 3.93695 13.3555L11.594 12.2329C11.641 12.369 11.7041 12.4976 11.7828 12.6149L7.72384 17.6883C6.51032 17.7818 5.44163 17.4462 4.77197 16.7459ZM8.54654 18.1872L12.5227 13.2182C12.7112 13.2952 12.9165 13.3385 13.1319 13.3385C13.1636 13.3385 13.1946 13.3355 13.2259 13.3336L15.9531 20.7854C12.6141 21.6512 10.1848 20.7978 8.54654 18.1872ZM20.504 29.8205C20.4458 29.8496 20.3943 29.8903 20.3521 29.9401C20.0039 30.3545 19.7773 30.5566 19.644 30.6543C19.6351 30.5721 19.6302 30.4559 19.6369 30.2949C19.9602 26.7431 19.3857 24.5205 17.881 23.5008C16.8131 22.7474 16.6276 22.2587 16.6123 22.0339C16.6082 21.9762 16.6003 21.8194 16.7754 21.6014L21.1453 21.799L21.4443 26.4191C21.2723 29.1493 20.7299 29.7078 20.504 29.8205ZM22.69 25.8463C22.581 25.9108 22.4708 25.9542 22.3682 25.9757L22.0841 21.5852L26.2174 18.8207L23.2178 25.2155L23.2196 25.2162C23.2125 25.2317 23.2043 25.2468 23.1987 25.2633C23.1222 25.4851 22.9322 25.703 22.69 25.8463ZM24.3458 25.0529L27.1383 19.0994C27.2155 19.1107 27.2943 19.1186 27.3749 19.1186C27.5097 19.1186 27.6396 19.1001 27.765 19.0688L29.0789 22.256C28.2499 24.6536 26.9643 25.4338 24.3458 25.0529ZM31.9196 17.5054C31.8946 17.5567 31.8789 17.6121 31.8729 17.6687C31.6657 19.7193 30.9987 21.0135 29.8427 21.6112L28.5881 18.5681C28.8464 18.2766 29.005 17.8931 29.005 17.4722C29.005 17.226 28.9498 16.9933 28.8535 16.7833L31.9061 13.6263C32.7005 14.621 32.7049 15.8945 31.9196 17.5054Z" fill="white" stroke="white" stroke-width="0.32674"/>
</g>
<defs>
<clipPath id="clip0_290_1376">
<rect width="31.1056" height="31.7537" fill="white" transform="translate(2 1.68457)"/>
</clipPath>
</defs>
</svg>
