<svg width="47" height="37" viewBox="0 0 47 37" fill="none" xmlns="http://www.w3.org/2000/svg">
<path d="M0.564697 0.894287V20.659H11.4353V22.6355C11.4353 24.6197 10.8254 26.3954 9.89503 27.6345C8.96856 28.8698 7.77573 29.5531 6.49411 29.5531H5.50587V36.4708H6.49411C14.122 36.4708 20.3294 30.2634 20.3294 22.6355V0.894287H0.564697ZM26.2588 0.894287V20.659H37.1294V22.6355C37.1294 24.6197 36.5195 26.3954 35.5891 27.6345C34.6627 28.8698 33.4698 29.5531 32.1882 29.5531H31.2V36.4708H32.1882C39.8162 36.4708 46.0235 30.2634 46.0235 22.6355V0.894287H26.2588ZM2.54117 2.87076H18.3529V22.6355C18.3529 28.8467 13.5546 33.7685 7.48234 34.2935V31.2671C9.04962 30.9621 10.4779 30.1515 11.4777 28.8158C12.6937 27.1945 13.4118 25.0173 13.4118 22.6355V18.6825H2.54117V2.87076ZM28.2353 2.87076H44.047V22.6355C44.047 28.8467 39.2487 33.7685 33.1765 34.2935V31.2671C34.7437 30.9621 36.172 30.1515 37.1719 28.8158C38.3879 27.1945 39.1059 25.0173 39.1059 22.6355V18.6825H28.2353V2.87076Z" fill="#511F0E"/>
</svg>
