<svg width="67" height="81" viewBox="0 0 67 81" fill="none" xmlns="http://www.w3.org/2000/svg">
<path d="M30.5097 0.432739C29.4515 0.432739 28.5536 1.26071 28.468 2.31884L28.2812 4.65898C28.2759 4.72846 28.2337 4.78791 28.1695 4.80929C27.2717 5.09253 26.3897 5.4609 25.5507 5.89377C25.4919 5.92584 25.4173 5.91579 25.3639 5.86769L23.5727 4.34378C22.7658 3.65439 21.5476 3.70299 20.7994 4.45651L17.0429 8.21306C16.2947 8.96123 16.2461 10.1804 16.9302 10.9874L18.453 12.7775C18.4958 12.8309 18.5069 12.9057 18.4802 12.9591C18.042 13.7981 17.6789 14.6801 17.3957 15.5779C17.3743 15.6367 17.3149 15.6843 17.2454 15.6896L14.9052 15.8765C13.8471 15.962 13.0181 16.8546 13.0181 17.9181V18.1748H6.88382C5.26455 18.1748 3.94977 19.4896 3.94977 21.1089V48.508H1.11174C0.593356 48.508 0.176514 48.9248 0.176514 49.4432V53.991C0.176514 56.0484 1.84948 57.7214 3.90697 57.7214H62.4461C64.5036 57.7214 66.1765 56.0484 66.1765 53.991V49.4432C66.1765 48.9302 65.7597 48.5132 65.2413 48.5132H62.3772V21.1141C62.3772 19.4948 61.0624 18.1801 59.4431 18.1801H53.3078V17.9233C53.3078 16.8652 52.4798 15.9672 51.4217 15.8817L49.0805 15.6948C49.011 15.6895 48.9526 15.6473 48.9313 15.5832C48.648 14.6853 48.2786 13.8034 47.8457 12.9643C47.8137 12.9055 47.8248 12.8309 47.8729 12.7775L49.3957 10.9874C50.0851 10.1804 50.0376 8.96123 49.2841 8.21306L45.5265 4.45651C44.7783 3.70833 43.5601 3.65973 42.7532 4.34378L40.9631 5.86769C40.9096 5.91045 40.8349 5.92049 40.7815 5.89377C39.9424 5.45555 39.0604 5.09253 38.1626 4.80929C38.1038 4.78791 38.0552 4.72846 38.0499 4.65898L37.8631 2.31884C37.7776 1.26071 36.8849 0.432739 35.8214 0.432739H30.5097ZM30.5316 2.3084H35.8434C35.9342 2.3084 36.0091 2.37725 36.0198 2.4681L36.2066 4.80929C36.2707 5.64297 36.8269 6.34297 37.6178 6.59415C38.4141 6.84532 39.1942 7.17173 39.9371 7.55651C40.6745 7.94128 41.5619 7.83962 42.1979 7.29452L43.9879 5.77061C44.0574 5.71182 44.1639 5.71797 44.228 5.78209L47.9856 9.53864C48.0497 9.60277 48.0548 9.70924 47.996 9.77871L46.4732 11.5698C45.9281 12.2058 45.8264 13.0921 46.2112 13.8296C46.596 14.5724 46.9213 15.3526 47.1725 16.1489C47.4237 16.9398 48.1237 17.4959 48.9574 17.5601L51.2985 17.7469C51.3894 17.7522 51.4593 17.8324 51.4593 17.9233V23.2361C51.4593 23.327 51.3894 23.4018 51.2985 23.4125L48.9574 23.5993C48.1237 23.6635 47.4237 24.2186 47.1725 25.0095C46.9213 25.8058 46.596 26.587 46.2112 27.3298C45.8264 28.0673 45.9281 28.9536 46.4732 29.5896L47.996 31.3796C48.0548 31.4491 48.0497 31.5566 47.9856 31.6208L44.228 35.3773C44.1639 35.4414 44.0574 35.4465 43.9879 35.3877L42.1979 33.8649C41.5619 33.3198 40.6745 33.2181 39.9371 33.6029C39.1942 33.9876 38.4087 34.3141 37.6178 34.5652C36.8269 34.8164 36.2707 35.5164 36.2066 36.3501L36.0198 38.6913C36.0144 38.7821 35.9342 38.851 35.8434 38.851H30.5316C30.4407 38.851 30.3659 38.7821 30.3552 38.6913L30.1673 36.3501C30.1032 35.5164 29.5481 34.8164 28.7572 34.5652C27.9609 34.3141 27.1807 33.9876 26.4379 33.6029C26.1386 33.4479 25.818 33.3732 25.5027 33.3732C25.0271 33.3732 24.5565 33.5389 24.1771 33.8649L22.387 35.3877C22.3175 35.4465 22.2153 35.4414 22.1511 35.3773L18.3946 31.6208C18.3304 31.5566 18.3253 31.4491 18.3841 31.3796L19.907 29.5896C20.4521 28.9536 20.5538 28.0673 20.169 27.3298C19.7789 26.587 19.4578 25.8058 19.2066 25.0095C18.9555 24.2186 18.2555 23.6635 17.4218 23.5993L15.0816 23.4125C14.9908 23.4072 14.9209 23.327 14.9209 23.2361V17.9233H14.9155C14.9155 17.8324 14.9854 17.7576 15.0763 17.7469L17.4164 17.5601C18.2501 17.4959 18.9501 16.9398 19.2013 16.1489C19.4525 15.3526 19.7789 14.5724 20.1637 13.8296C20.5484 13.0921 20.4468 12.2058 19.9017 11.5698L18.3788 9.77871C18.32 9.70924 18.3251 9.60277 18.3892 9.53864L22.1458 5.78209C22.2099 5.71797 22.3174 5.71183 22.3869 5.77061L24.177 7.29452C24.8129 7.83962 25.7003 7.94128 26.4378 7.55651C27.1806 7.17173 27.9608 6.84532 28.757 6.59415C29.548 6.34297 30.1031 5.64297 30.1672 4.80929L30.3551 2.4681C30.3604 2.37725 30.4407 2.3084 30.5316 2.3084ZM34.9259 14.7773C34.5279 14.763 34.1494 15.0064 34.0105 15.4015L30.5744 25.1379C30.4034 25.6242 30.659 26.1588 31.1453 26.3298C31.2469 26.3673 31.3538 26.3831 31.4553 26.3831C31.8401 26.3831 32.2037 26.1426 32.3373 25.7579L35.7734 16.0215C35.9444 15.5352 35.6878 15.0005 35.2014 14.8295C35.1103 14.7975 35.0177 14.7807 34.9259 14.7773ZM38.6939 14.9955C38.4548 14.9955 38.216 15.0862 38.0342 15.2679C37.6708 15.6313 37.6708 16.2239 38.0342 16.5873L42.0215 20.5745L38.0342 24.5607C37.6655 24.9294 37.6656 25.5228 38.029 25.8862C38.2107 26.0679 38.4513 26.1587 38.6918 26.1587C38.9323 26.1587 39.1729 26.0679 39.3546 25.8862L44.0036 21.2373C44.367 20.8739 44.367 20.2803 44.0036 19.9169L39.3546 15.2679C39.1729 15.0862 38.9331 14.9955 38.6939 14.9955ZM27.6643 15.0008C27.4252 15.0008 27.1853 15.0916 27.0036 15.2733L22.3547 19.9222C21.9913 20.2856 21.9913 20.8792 22.3547 21.2426L26.9984 25.8864C27.1801 26.0681 27.4207 26.1588 27.6612 26.1588C27.9017 26.1588 28.1423 26.0681 28.324 25.8864C28.6874 25.523 28.6874 24.9294 28.324 24.566L24.3378 20.5798L28.324 16.5926C28.6874 16.2292 28.6874 15.6367 28.324 15.2733C28.1423 15.0916 27.9035 15.0008 27.6643 15.0008ZM6.90991 20.0506H13.0452V23.23C13.0452 24.2881 13.8732 25.1861 14.9313 25.2716L17.2725 25.4595C17.342 25.4648 17.4004 25.507 17.4218 25.5712C17.705 26.469 18.0744 27.351 18.5073 28.19C18.5394 28.2488 18.5282 28.3234 18.4802 28.3768L16.9573 30.1669C16.2679 30.9739 16.3154 32.1931 17.069 32.9413L20.8266 36.6978C21.5747 37.446 22.7929 37.4935 23.5999 36.8095L25.3899 35.2866C25.4434 35.2439 25.518 35.2338 25.5768 35.2605C26.4158 35.6988 27.2978 36.0618 28.1956 36.345C28.2544 36.3664 28.303 36.4248 28.3083 36.4943L28.4952 38.8355C28.5807 39.8936 29.4733 40.7216 30.5368 40.7216H35.8486C36.9067 40.7216 37.8047 39.8936 37.8902 38.8355L38.077 36.4943C38.0824 36.4248 38.1256 36.3664 38.1898 36.345C39.0876 36.0618 39.9685 35.6934 40.8076 35.2605C40.8663 35.2285 40.9411 35.2385 40.9892 35.2866L42.7803 36.8095C43.5873 37.4989 44.8054 37.4513 45.5536 36.6978L49.3102 32.9413C50.0583 32.1931 50.1069 30.9739 49.4229 30.1669L47.9 28.3768C47.8573 28.3234 47.8461 28.2488 47.8729 28.19C48.3111 27.351 48.6741 26.469 48.9574 25.5712C48.9787 25.5124 49.0382 25.4648 49.1077 25.4595L51.4478 25.2716C52.5059 25.1861 53.3349 24.2934 53.3349 23.23V20.0506H59.4692C60.0571 20.0506 60.5328 20.5264 60.5328 21.1142V48.5133H43.154C42.6356 48.5133 42.2187 48.9302 42.2187 49.4486V50.5497C42.2187 51.3033 41.6039 51.9181 40.8504 51.9181H24.1291C23.3702 51.9181 22.7555 51.3033 22.7555 50.5497V49.4486C22.7555 48.9302 22.3386 48.5133 21.8202 48.5133H5.87344V21.1142H5.84629C5.84629 20.5264 6.32206 20.0506 6.90991 20.0506ZM2.04696 50.3838H20.8579V50.5497C20.8579 52.3347 22.3116 53.7886 24.1019 53.7886H40.8243C42.6092 53.7886 44.0621 52.3347 44.0621 50.5497V50.3838H64.3061V53.9963C64.3061 55.0224 63.4721 55.8563 62.4461 55.8563H3.90697C2.88089 55.8563 2.04696 55.0224 2.04696 53.9963V50.3838Z" fill="#3F1000"/>
</svg>
