<svg width="39" height="39" viewBox="0 0 39 39" fill="none" xmlns="http://www.w3.org/2000/svg">
<path d="M18.0449 1.85205C17.4865 1.85205 17.0126 2.28901 16.9675 2.84744L16.8689 4.08245C16.866 4.11911 16.8438 4.15049 16.8099 4.16177C16.3361 4.31125 15.8706 4.50566 15.4278 4.73411C15.3968 4.75103 15.3574 4.74573 15.3292 4.72035L14.384 3.9161C13.9581 3.55228 13.3152 3.57792 12.9204 3.97559L10.9378 5.95811C10.543 6.35296 10.5173 6.9964 10.8783 7.42228L11.682 8.36699C11.7046 8.39519 11.7105 8.43463 11.6964 8.46283C11.4651 8.90563 11.2735 9.3711 11.124 9.84492C11.1128 9.87595 11.0814 9.90104 11.0447 9.90386L9.8097 10.0025C9.25127 10.0476 8.81376 10.5187 8.81376 11.0799V11.2154H5.5764C4.72183 11.2154 4.02796 11.9093 4.02796 12.7639V27.2238H2.53018C2.25661 27.2238 2.03662 27.4437 2.03662 27.7173V30.1174C2.03662 31.2032 2.91953 32.0861 4.00537 32.0861H34.8994C35.9852 32.0861 36.8681 31.2032 36.8681 30.1174V27.7173C36.8681 27.4466 36.6481 27.2265 36.3745 27.2265H34.863V12.7666C34.863 11.9121 34.1691 11.2182 33.3146 11.2182H30.0766V11.0827C30.0766 10.5243 29.6397 10.0503 29.0813 10.0052L27.8457 9.90662C27.809 9.9038 27.7782 9.88152 27.7669 9.84768C27.6174 9.37386 27.4225 8.90839 27.194 8.46559C27.1771 8.43457 27.183 8.39519 27.2084 8.36699L28.0121 7.42228C28.3759 6.9964 28.3508 6.35296 27.9531 5.95811L25.97 3.97559C25.5752 3.58074 24.9323 3.5551 24.5064 3.9161L23.5617 4.72035C23.5335 4.74291 23.4941 4.74821 23.4659 4.73411C23.0231 4.50284 22.5576 4.31125 22.0838 4.16177C22.0528 4.15049 22.0271 4.11911 22.0243 4.08245L21.9257 2.84744C21.8806 2.28901 21.4095 1.85205 20.8482 1.85205H18.0449ZM18.0565 2.84193H20.8598C20.9077 2.84193 20.9472 2.87827 20.9529 2.92621L21.0515 4.16177C21.0853 4.60175 21.3788 4.97117 21.7962 5.10373C22.2165 5.23629 22.6282 5.40855 23.0202 5.61162C23.4094 5.81468 23.8778 5.76103 24.2134 5.47335L25.1581 4.66911C25.1948 4.63808 25.2509 4.64133 25.2848 4.67517L27.2679 6.65769C27.3017 6.69153 27.3044 6.74772 27.2734 6.78439L26.4697 7.72965C26.182 8.06527 26.1283 8.53303 26.3314 8.92224C26.5345 9.31427 26.7062 9.726 26.8387 10.1462C26.9713 10.5636 27.3407 10.8571 27.7807 10.891L29.0163 10.9896C29.0642 10.9924 29.1011 11.0347 29.1011 11.0827V13.8865C29.1011 13.9345 29.0642 13.974 29.0163 13.9796L27.7807 14.0782C27.3407 14.1121 26.9713 14.405 26.8387 14.8224C26.7062 15.2427 26.5345 15.6549 26.3314 16.047C26.1283 16.4362 26.182 16.9039 26.4697 17.2396L27.2734 18.1843C27.3044 18.2209 27.3017 18.2777 27.2679 18.3115L25.2848 20.294C25.2509 20.3279 25.1948 20.3306 25.1581 20.2995L24.2134 19.4958C23.8778 19.2082 23.4094 19.1545 23.0202 19.3576C22.6282 19.5606 22.2137 19.7329 21.7962 19.8655C21.3788 19.998 21.0853 20.3674 21.0515 20.8074L20.9529 22.043C20.9501 22.0909 20.9077 22.1273 20.8598 22.1273H18.0565C18.0086 22.1273 17.969 22.0909 17.9634 22.043L17.8643 20.8074C17.8304 20.3674 17.5375 19.998 17.1201 19.8655C16.6998 19.7329 16.2881 19.5606 15.8961 19.3576C15.7381 19.2758 15.5689 19.2364 15.4025 19.2364C15.1515 19.2364 14.9032 19.3238 14.7029 19.4958L13.7582 20.2995C13.7215 20.3306 13.6676 20.3279 13.6337 20.294L11.6512 18.3115C11.6173 18.2777 11.6147 18.2209 11.6457 18.1843L12.4494 17.2396C12.7371 16.9039 12.7907 16.4362 12.5877 16.047C12.3818 15.6549 12.2123 15.2427 12.0798 14.8224C11.9472 14.405 11.5778 14.1121 11.1378 14.0782L9.90279 13.9796C9.85485 13.9768 9.81796 13.9345 9.81796 13.8865V11.0827H9.81514C9.81514 11.0347 9.85203 10.9952 9.89997 10.9896L11.135 10.891C11.575 10.8571 11.9444 10.5636 12.0769 10.1462C12.2095 9.726 12.3818 9.31427 12.5848 8.92224C12.7879 8.53303 12.7342 8.06527 12.4466 7.72965L11.6429 6.78439C11.6118 6.74772 11.6145 6.69153 11.6484 6.65769L13.6309 4.67517C13.6647 4.64133 13.7215 4.63809 13.7581 4.66911L14.7028 5.47335C15.0385 5.76103 15.5068 5.81468 15.896 5.61162C16.288 5.40855 16.6997 5.23629 17.12 5.10373C17.5374 4.97117 17.8303 4.60175 17.8642 4.16177L17.9633 2.92621C17.9662 2.87827 18.0086 2.84193 18.0565 2.84193ZM20.3756 9.42241C20.1655 9.41485 19.9658 9.54329 19.8925 9.75182L18.0791 14.8902C17.9888 15.1468 18.1238 15.429 18.3804 15.5192C18.434 15.539 18.4904 15.5473 18.544 15.5473C18.7471 15.5473 18.939 15.4204 19.0095 15.2174L20.8229 10.079C20.9131 9.82237 20.7777 9.5402 20.521 9.44995C20.4729 9.43303 20.4241 9.42416 20.3756 9.42241ZM22.3642 9.53754C22.238 9.53754 22.1119 9.58542 22.016 9.68131C21.8242 9.8731 21.8242 10.1858 22.016 10.3776L24.1203 12.4818L22.016 14.5855C21.8214 14.7802 21.8215 15.0933 22.0133 15.2851C22.1092 15.381 22.2361 15.4289 22.3631 15.4289C22.49 15.4289 22.617 15.381 22.7128 15.2851L25.1663 12.8316C25.3581 12.6399 25.3581 12.3266 25.1663 12.1348L22.7128 9.68131C22.617 9.58542 22.4904 9.53754 22.3642 9.53754ZM16.5433 9.54036C16.4171 9.54036 16.2905 9.58824 16.1946 9.68413L13.7411 12.1376C13.5493 12.3294 13.5493 12.6427 13.7411 12.8345L16.1919 15.2852C16.2878 15.3811 16.4147 15.429 16.5417 15.429C16.6686 15.429 16.7956 15.3811 16.8915 15.2852C17.0832 15.0934 17.0832 14.7802 16.8915 14.5884L14.7877 12.4847L16.8915 10.3804C17.0832 10.1886 17.0832 9.87592 16.8915 9.68413C16.7956 9.58824 16.6695 9.54036 16.5433 9.54036ZM5.59017 12.2054H8.82808V13.8833C8.82808 14.4417 9.26503 14.9156 9.82347 14.9607L11.059 15.0599C11.0957 15.0627 11.1265 15.085 11.1378 15.1188C11.2873 15.5927 11.4822 16.0581 11.7107 16.5009C11.7276 16.532 11.7217 16.5713 11.6964 16.5995L10.8927 17.5442C10.5288 17.9701 10.5539 18.6136 10.9516 19.0084L12.9347 20.9909C13.3295 21.3858 13.9724 21.4109 14.3983 21.0499L15.343 20.2462C15.3712 20.2236 15.4106 20.2183 15.4416 20.2324C15.8844 20.4637 16.3499 20.6553 16.8237 20.8047C16.8547 20.816 16.8804 20.8468 16.8832 20.8835L16.9818 22.1191C17.0269 22.6775 17.498 23.1145 18.0593 23.1145H20.8625C21.421 23.1145 21.8949 22.6775 21.94 22.1191L22.0386 20.8835C22.0414 20.8469 22.0643 20.816 22.0981 20.8047C22.5719 20.6553 23.0368 20.4609 23.4796 20.2324C23.5107 20.2155 23.5501 20.2208 23.5755 20.2462L24.5208 21.0499C24.9466 21.4137 25.5895 21.3886 25.9844 20.9909L27.9669 19.0084C28.3617 18.6136 28.3874 17.9701 28.0264 17.5442L27.2227 16.5995C27.2001 16.5713 27.1943 16.532 27.2084 16.5009C27.4396 16.0581 27.6312 15.5927 27.7807 15.1188C27.792 15.0878 27.8234 15.0627 27.86 15.0599L29.095 14.9607C29.6535 14.9156 30.091 14.4445 30.091 13.8833V12.2054H33.3283C33.6386 12.2054 33.8896 12.4565 33.8896 12.7667V27.2266H24.718C24.4444 27.2266 24.2244 27.4466 24.2244 27.7201V28.3013C24.2244 28.699 23.8999 29.0234 23.5022 29.0234H14.6776C14.2771 29.0234 13.9527 28.699 13.9527 28.3013V27.7201C13.9527 27.4466 13.7327 27.2266 13.4591 27.2266H5.04317V12.7667H5.02885C5.02885 12.4565 5.27993 12.2054 5.59017 12.2054ZM3.02375 28.2137H12.9512V28.3013C12.9512 29.2433 13.7184 30.0106 14.6633 30.0106H23.4885C24.4305 30.0106 25.1972 29.2433 25.1972 28.3013V28.2137H35.881V30.1202C35.881 30.6617 35.4409 31.1018 34.8994 31.1018H4.00537C3.46386 31.1018 3.02375 30.6617 3.02375 30.1202V28.2137Z" fill="#F8F6F5"/>
</svg>
