<svg width="67" height="67" viewBox="0 0 67 67" fill="none" xmlns="http://www.w3.org/2000/svg">
<path d="M36.7376 49.1518C36.5733 49.1518 36.3986 49.1107 36.2445 49.0182C35.7616 48.7511 35.5972 48.1346 35.8644 47.6518L45.275 30.9978L34.0351 14.2926L22.7953 31.0084L32.2059 47.6623C32.473 48.1452 32.3086 48.7513 31.8257 49.0287C31.3428 49.2959 30.7367 49.1315 30.4593 48.6486L20.7502 31.4601C20.5653 31.1313 20.5755 30.7204 20.7913 30.4121L33.2022 11.9394C33.5721 11.3846 34.4864 11.3846 34.8665 11.9394L47.2775 30.4016C47.4932 30.7201 47.5035 31.1208 47.3186 31.4496L37.6094 48.6381C37.4245 48.9771 37.0855 49.1518 36.7362 49.1518L36.7376 49.1518Z" fill="#3F1000"/>
<path d="M37.6416 56.8672C37.0868 56.8672 36.6451 56.4151 36.6451 55.8706V49.1618H31.4465V55.8706C31.4465 56.4254 30.9944 56.8672 30.4499 56.8672C29.8951 56.8672 29.4534 56.4151 29.4534 55.8706V48.165C29.4534 47.6102 29.9054 47.1685 30.4499 47.1685H37.6519C38.2067 47.1685 38.6484 47.6205 38.6484 48.165V55.8706C38.6381 56.4151 38.1861 56.8672 37.6416 56.8672Z" fill="#3F1000"/>
<path d="M41.679 66.1857H26.3914C26.0729 66.1857 25.7852 66.0419 25.59 65.785C25.4051 65.5385 25.3434 65.2097 25.4256 64.9118L28.0866 55.5932C28.2099 55.1617 28.6003 54.8638 29.0524 54.8638H38.9975C39.4393 54.8638 39.84 55.1617 39.9633 55.5932L42.6243 64.9118C42.7065 65.2097 42.6448 65.5385 42.4599 65.785C42.2852 66.0419 41.9872 66.1857 41.679 66.1857ZM27.717 64.1823H40.3541L38.2582 56.8567H29.8129L27.717 64.1823Z" fill="#3F1000"/>
<path d="M34.0254 28.0593C33.4706 28.0593 33.0288 27.6073 33.0288 27.0628V12.5044C33.0288 11.9496 33.4809 11.5078 34.0254 11.5078C34.5802 11.5078 35.0219 11.9599 35.0219 12.5044V27.0628C35.0322 27.6073 34.5801 28.0593 34.0254 28.0593Z" fill="#3F1000"/>
<path d="M34.0352 34.5933C31.6825 34.5933 29.7715 32.6824 29.7715 30.3296C29.7715 27.9768 31.6824 26.0659 34.0352 26.0659C36.388 26.0659 38.2989 27.9768 38.2989 30.3296C38.2989 32.6824 36.388 34.5933 34.0352 34.5933ZM34.0352 28.0694C32.7921 28.0694 31.7749 29.0865 31.7749 30.3296C31.7749 31.5727 32.7921 32.5899 34.0352 32.5899C35.2783 32.5899 36.2954 31.5727 36.2954 30.3296C36.2954 29.0865 35.2783 28.0694 34.0352 28.0694Z" fill="#3F1000"/>
<path d="M61.6107 19.1104C61.2203 19.1104 60.8607 18.8844 60.6963 18.5043C57.6963 11.5594 48.1625 6.47341 36.419 5.54892C35.8642 5.50783 35.4532 5.02495 35.5046 4.47017C35.5354 3.92566 36.0286 3.51472 36.5628 3.55581C49.0454 4.53185 59.2273 10.09 62.5248 17.7131C62.7405 18.2165 62.5145 18.8125 62.0008 19.0282C61.8775 19.0796 61.7443 19.1104 61.6107 19.1104Z" fill="#3F1000"/>
<path d="M5.55605 19.1722C5.42249 19.1722 5.27865 19.1414 5.14509 19.09C4.64167 18.864 4.41563 18.2784 4.64167 17.775C8.3608 9.42233 18.0185 4.07989 30.4906 3.46312C31.0556 3.44258 31.5077 3.86381 31.5385 4.40832C31.5693 4.96312 31.1378 5.42546 30.5933 5.4563C18.8912 6.03164 9.87056 10.9426 6.46981 18.576C6.30542 18.9459 5.94583 19.1719 5.55544 19.1719L5.55605 19.1722Z" fill="#3F1000"/>
<path d="M62.4943 24.9053C60.306 24.9053 58.5183 23.1176 58.5183 20.9293C58.5183 18.7409 60.306 16.9532 62.4943 16.9532C64.6827 16.9532 66.4704 18.7409 66.4704 20.9293C66.4704 23.1176 64.6827 24.9053 62.4943 24.9053ZM62.4943 18.9464C61.4053 18.9464 60.5217 19.83 60.5217 20.919C60.5217 22.008 61.4053 22.8916 62.4943 22.8916C63.5833 22.8916 64.4669 22.008 64.4669 20.919C64.4669 19.83 63.5833 18.9464 62.4943 18.9464Z" fill="#3F1000"/>
<path d="M4.44649 24.9053C2.25816 24.9053 0.470459 23.1176 0.470459 20.9293C0.470459 18.7409 2.25816 16.9532 4.44649 16.9532C6.63482 16.9532 8.42251 18.7409 8.42251 20.9293C8.42251 23.1176 6.64514 24.9053 4.44649 24.9053ZM4.44649 18.9464C3.35748 18.9464 2.47389 19.83 2.47389 20.919C2.47389 22.008 3.35748 22.8916 4.44649 22.8916C5.53549 22.8916 6.41908 22.008 6.41908 20.919C6.41908 19.83 5.54581 18.9464 4.44649 18.9464Z" fill="#3F1000"/>
<path d="M33.5217 8.38479C31.3333 8.38479 29.5457 6.5971 29.5457 4.40877C29.5457 2.22044 31.323 0.432739 33.5217 0.432739C35.71 0.432739 37.4977 2.22044 37.4977 4.40877C37.4977 6.5971 35.71 8.38479 33.5217 8.38479ZM33.5217 2.43617C32.4327 2.43617 31.5491 3.31976 31.5491 4.40877C31.5491 5.49777 32.4327 6.38136 33.5217 6.38136C34.6107 6.38136 35.4943 5.49777 35.4943 4.40877C35.4943 3.31976 34.6107 2.43617 33.5217 2.43617Z" fill="#3F1000"/>
</svg>
