<svg width="37" height="41" viewBox="0 0 37 41" fill="none" xmlns="http://www.w3.org/2000/svg">
<g clip-path="url(#clip0_290_1981)">
<path d="M20.6495 24.9976C20.5683 24.9976 20.4822 24.9773 20.4061 24.9317C20.1678 24.7999 20.0867 24.4957 20.2185 24.2575L24.8621 16.0397L19.3159 7.79665L13.7697 16.0449L18.4133 24.2626C18.5451 24.5009 18.464 24.8 18.2257 24.9369C17.9874 25.0687 17.6884 24.9876 17.5515 24.7493L12.7606 16.2678C12.6693 16.1056 12.6744 15.9028 12.7809 15.7507L18.9049 6.63549C19.0874 6.36174 19.5386 6.36174 19.7262 6.63549L25.8502 15.7455C25.9567 15.9026 25.9618 16.1004 25.8705 16.2626L21.0796 24.7441C20.9884 24.9114 20.8211 24.9976 20.6487 24.9976L20.6495 24.9976Z" fill="white"/>
<path d="M21.0956 28.8048C20.8218 28.8048 20.6038 28.5817 20.6038 28.313V25.0027H18.0387V28.313C18.0387 28.5868 17.8156 28.8048 17.5469 28.8048C17.2732 28.8048 17.0552 28.5817 17.0552 28.313V24.5108C17.0552 24.237 17.2782 24.019 17.5469 24.019H21.1007C21.3744 24.019 21.5924 24.2421 21.5924 24.5108V28.313C21.5873 28.5817 21.3643 28.8048 21.0956 28.8048Z" fill="white"/>
<path d="M23.088 33.4031H15.5445C15.3873 33.4031 15.2454 33.3321 15.149 33.2054C15.0578 33.0837 15.0274 32.9215 15.0679 32.7745L16.3809 28.1764C16.4418 27.9634 16.6344 27.8164 16.8575 27.8164H21.7649C21.9828 27.8164 22.1805 27.9634 22.2414 28.1764L23.5544 32.7745C23.595 32.9215 23.5646 33.0837 23.4733 33.2054C23.3871 33.3321 23.2401 33.4031 23.088 33.4031ZM16.1986 32.4145H22.4342L21.4 28.7998H17.2328L16.1986 32.4145Z" fill="white"/>
<path d="M19.3106 14.5896C19.0368 14.5896 18.8188 14.3665 18.8188 14.0978V6.9141C18.8188 6.64035 19.0419 6.42236 19.3106 6.42236C19.5843 6.42236 19.8023 6.64542 19.8023 6.9141V14.0978C19.8074 14.3665 19.5843 14.5896 19.3106 14.5896Z" fill="white"/>
<path d="M19.3163 17.8137C18.1554 17.8137 17.2124 16.8708 17.2124 15.7098C17.2124 14.5489 18.1553 13.606 19.3163 13.606C20.4772 13.606 21.4202 14.5489 21.4202 15.7098C21.4202 16.8708 20.4772 17.8137 19.3163 17.8137ZM19.3163 14.5945C18.7029 14.5945 18.201 15.0964 18.201 15.7098C18.201 16.3233 18.7029 16.8251 19.3163 16.8251C19.9297 16.8251 20.4316 16.3233 20.4316 15.7098C20.4316 15.0964 19.9297 14.5945 19.3163 14.5945Z" fill="white"/>
<path d="M32.923 10.1738C32.7304 10.1738 32.553 10.0622 32.4718 9.87465C30.9915 6.44777 26.2871 3.93813 20.4924 3.48195C20.2186 3.46167 20.0158 3.2234 20.0412 2.94965C20.0564 2.68097 20.2998 2.47819 20.5634 2.49847C26.7228 2.98009 31.747 5.72272 33.3741 9.48427C33.4805 9.73267 33.369 10.0267 33.1155 10.1332C33.0547 10.1585 32.9889 10.1738 32.923 10.1738Z" fill="white"/>
<path d="M5.26352 10.2045C5.19761 10.2045 5.12664 10.1893 5.06073 10.1639C4.81233 10.0524 4.70079 9.76344 4.81233 9.51504C6.6475 5.39351 11.413 2.75733 17.5672 2.45299C17.8461 2.44285 18.0691 2.65071 18.0843 2.91939C18.0995 3.19315 17.8866 3.42129 17.6179 3.43651C11.8436 3.7204 7.39247 6.14368 5.7144 9.91032C5.63329 10.0928 5.45585 10.2044 5.26322 10.2044L5.26352 10.2045Z" fill="white"/>
<path d="M33.3589 13.0332C32.2791 13.0332 31.397 12.1511 31.397 11.0713C31.397 9.9915 32.2791 9.10938 33.3589 9.10938C34.4387 9.10938 35.3208 9.9915 35.3208 11.0713C35.3208 12.1511 34.4387 13.0332 33.3589 13.0332ZM33.3589 10.0929C32.8215 10.0929 32.3855 10.5289 32.3855 11.0662C32.3855 11.6036 32.8215 12.0396 33.3589 12.0396C33.8963 12.0396 34.3323 11.6036 34.3323 11.0662C34.3323 10.5289 33.8963 10.0929 33.3589 10.0929Z" fill="white"/>
<path d="M4.71584 13.0332C3.63603 13.0332 2.75391 12.1511 2.75391 11.0713C2.75391 9.9915 3.63603 9.10938 4.71584 9.10938C5.79565 9.10938 6.67778 9.9915 6.67778 11.0713C6.67778 12.1511 5.80075 13.0332 4.71584 13.0332ZM4.71584 10.0929C4.17848 10.0929 3.74248 10.5289 3.74248 11.0662C3.74248 11.6036 4.17848 12.0396 4.71584 12.0396C5.2532 12.0396 5.6892 11.6036 5.6892 11.0662C5.6892 10.5289 5.25829 10.0929 4.71584 10.0929Z" fill="white"/>
<path d="M19.063 4.88188C17.9832 4.88188 17.1011 3.99975 17.1011 2.91994C17.1011 1.84013 17.9781 0.958008 19.063 0.958008C20.1428 0.958008 21.0249 1.84013 21.0249 2.91994C21.0249 3.99975 20.1428 4.88188 19.063 4.88188ZM19.063 1.94658C18.5256 1.94658 18.0896 2.38258 18.0896 2.91994C18.0896 3.4573 18.5256 3.8933 19.063 3.8933C19.6004 3.8933 20.0364 3.4573 20.0364 2.91994C20.0364 2.38258 19.6004 1.94658 19.063 1.94658Z" fill="white"/>
</g>
<defs>
<clipPath id="clip0_290_1981">
<rect width="33.6568" height="34.358" fill="white" transform="translate(1.99512 0.958008)"/>
</clipPath>
</defs>
</svg>
