<svg width="86" height="81" viewBox="0 0 86 81" fill="none" xmlns="http://www.w3.org/2000/svg">
<path fill-rule="evenodd" clip-rule="evenodd" d="M31.4422 27.7978V37.8517H31.4392C31.4392 38.1705 31.3103 38.4892 31.0584 38.7199C30.5846 39.1509 29.8559 39.1115 29.43 38.6319L25.9664 34.7373L22.7457 36.0396C22.6048 36.1003 22.4488 36.1367 22.2869 36.1367C21.6511 36.1367 21.1383 35.6146 21.1383 34.9741V21.7761L15.4796 18.4674V45.3865C15.4796 45.432 15.4856 45.4654 15.4975 45.4866C15.5125 45.514 15.5395 45.5382 15.5755 45.5595C15.5965 45.5716 15.6145 45.5838 15.6355 45.5959L27.6131 52.5957L27.6161 52.5988V52.5957L38.6011 59.0158V31.9817L31.4422 27.7978ZM61.5621 9.18424C62.2968 9.18424 62.9685 9.48779 63.4574 9.97951L63.4664 9.98862C63.9522 10.4834 64.252 11.1603 64.252 11.904C64.252 12.6477 63.9521 13.3276 63.4664 13.8225L63.4574 13.8316C62.9686 14.3233 62.2998 14.6268 61.5651 14.6268C60.8305 14.6268 60.1587 14.3233 59.6699 13.8316L59.6609 13.8225C59.1751 13.3277 58.8752 12.6508 58.8752 11.9071C58.8752 11.1573 59.1751 10.4774 59.6609 9.98559C59.6879 9.95827 59.7178 9.93095 59.7478 9.90667C60.2306 9.45438 60.8693 9.18424 61.5621 9.18424ZM61.829 11.6278C61.763 11.561 61.67 11.5215 61.5621 11.5215C61.4691 11.5215 61.3881 11.5519 61.3252 11.6035L61.2952 11.6339C61.2262 11.7037 61.1842 11.7978 61.1842 11.904C61.1842 12.0103 61.2262 12.1074 61.2892 12.1742L61.2952 12.1803C61.3612 12.247 61.4541 12.2865 61.5621 12.2865C61.67 12.2865 61.763 12.244 61.829 12.1803L61.835 12.1742C61.901 12.1074 61.9399 12.0133 61.9399 11.904C61.9399 11.7947 61.898 11.7006 61.835 11.6339L61.829 11.6278ZM68.4534 18.4819C69.1881 18.4819 69.8598 18.7855 70.3486 19.2772L70.3576 19.2863C70.8434 19.7811 71.1433 20.458 71.1433 21.2017C71.1433 21.9484 70.8404 22.6283 70.3546 23.1201L70.3576 23.1232C69.8718 23.6149 69.2001 23.9184 68.4594 23.9184C67.7186 23.9184 67.047 23.6149 66.5611 23.1232C66.0753 22.6314 65.7754 21.9515 65.7754 21.2017C65.7754 20.4519 66.0753 19.772 66.5611 19.2802C66.5881 19.2498 66.6181 19.2255 66.648 19.1982C67.1219 18.755 67.7576 18.4819 68.4534 18.4819ZM68.7173 20.9255C68.6513 20.8587 68.5583 20.8192 68.4504 20.8192C68.3574 20.8192 68.2764 20.8496 68.2135 20.8981L68.1835 20.9285C68.1145 20.9983 68.0725 21.0924 68.0725 21.1987C68.0725 21.3049 68.1145 21.399 68.1835 21.4688C68.2524 21.5386 68.3454 21.5811 68.4504 21.5811C68.5553 21.5811 68.6483 21.5386 68.7173 21.4688L68.7203 21.4719L68.7233 21.4688C68.7892 21.402 68.8282 21.3079 68.8282 21.1987C68.8282 21.0894 68.7862 20.9953 68.7233 20.9285L68.7173 20.9255ZM57.244 5.85155H60.4227C60.5037 5.85155 60.5697 5.84244 60.6207 5.8212C60.6656 5.80298 60.7196 5.76352 60.7766 5.70584L63.0227 3.43225C63.5685 2.87978 64.2882 2.60053 65.0079 2.60053C65.7246 2.60053 66.4414 2.87676 66.9901 3.43225L66.9931 3.43528L66.9961 3.43225L69.2422 5.70584C69.2992 5.76352 69.3532 5.80298 69.3982 5.8212C69.4492 5.84244 69.5151 5.85155 69.5961 5.85155H72.7748C73.5455 5.85155 74.2473 6.17028 74.754 6.6863L74.76 6.69237C75.2668 7.2084 75.5817 7.91566 75.5817 8.69577V11.9134C75.5817 11.9953 75.5907 12.0621 75.6117 12.1137C75.6297 12.1592 75.6687 12.2139 75.7256 12.2716L77.9718 14.5452C78.5175 15.0976 78.7934 15.8261 78.7934 16.5546C78.7934 17.2832 78.5205 18.0086 77.9718 18.5641L75.7256 20.8377C75.6687 20.8954 75.6297 20.95 75.6117 20.9955C75.5907 21.0471 75.5817 21.1139 75.5817 21.1959V24.4135C75.5817 25.1966 75.2668 25.907 74.76 26.423C74.733 26.4503 74.706 26.4746 74.6761 26.4988C74.1753 26.9693 73.5065 27.2547 72.7748 27.2547H69.596C69.5151 27.2547 69.4491 27.2638 69.3981 27.285C69.3531 27.3032 69.2992 27.3427 69.2422 27.4004L66.9961 29.674C66.7771 29.8956 66.5282 30.0747 66.2644 30.2082L66.1804 45.492C66.1774 45.9503 66.0634 46.3813 65.8475 46.7517C65.6316 47.1281 65.3227 47.4408 64.9329 47.6684L49.8699 56.4713V56.4682L49.8669 56.4713L41.0683 61.6134C41.0503 61.6255 41.0293 61.6377 41.0083 61.6498C40.8704 61.7318 40.7295 61.7986 40.5855 61.8502C40.3756 62.0687 40.0817 62.2053 39.7579 62.2053C39.434 62.2053 39.1401 62.0687 38.9302 61.8502C38.7863 61.7986 38.6453 61.7318 38.5074 61.6498L26.4614 54.6135V54.6105L14.4838 47.6107C14.4628 47.6016 14.4418 47.5894 14.4179 47.5773C14.025 47.3496 13.7161 47.0309 13.5002 46.6575C13.2813 46.275 13.1674 45.844 13.1674 45.3887V17.2349C13.1674 17.0709 13.1824 16.9101 13.2123 16.7522C13.1344 16.4638 13.1674 16.1451 13.3263 15.8659C13.4852 15.5836 13.7431 15.3954 14.031 15.3195C14.148 15.2163 14.2799 15.1222 14.4179 15.0432L26.4584 8.00696V8.01L26.4614 8.00696L38.5051 0.970678C38.9009 0.739976 39.3267 0.624634 39.7526 0.624634C40.1784 0.624634 40.6013 0.739984 41.0001 0.970678L48.2962 5.23556H48.2992L52.9834 7.97355C53.0044 7.98265 53.0254 7.99479 53.0494 8.00694L54.4378 8.81744V8.69298C54.4378 7.91286 54.7527 7.20253 55.2595 6.68957L55.2655 6.6835C55.7753 6.17354 56.4733 5.85155 57.244 5.85155ZM63.9584 30.3026C63.6165 30.1629 63.2986 29.9565 63.0227 29.6773L60.7766 27.4037C60.7196 27.346 60.6656 27.3065 60.6206 27.2883C60.5697 27.2671 60.5037 27.258 60.4227 27.258H57.244C56.4703 27.258 55.7685 26.9392 55.2588 26.4262C54.752 25.9132 54.4371 25.1999 54.4371 24.4168V24.0798L40.9095 31.9875V59.0246L48.7155 54.4623V54.4592L63.7754 45.6564C63.8114 45.6352 63.8384 45.6109 63.8534 45.5866C63.8684 45.5593 63.8774 45.5259 63.8774 45.4864L63.9584 30.3026ZM54.4374 21.3871L39.7583 29.9653L32.5941 25.7794L52.3592 14.2296L52.0474 14.5452C51.5016 15.0977 51.2257 15.8262 51.2257 16.5547C51.2257 17.2832 51.4986 18.0087 52.0474 18.5642L54.2935 20.8378C54.3505 20.8955 54.3895 20.9501 54.4074 20.9956C54.4284 21.0472 54.4374 21.114 54.4374 21.196L54.4374 21.3871ZM60.423 8.18903H57.2443C57.1064 8.18903 56.9834 8.24366 56.8935 8.33169L56.8905 8.33473C56.8035 8.42579 56.7495 8.55328 56.7495 8.68988V11.9075C56.7495 12.2869 56.6805 12.6481 56.5366 12.9911C56.3957 13.3402 56.1917 13.6468 55.9249 13.917L53.6787 16.1905C53.5828 16.2877 53.5348 16.4182 53.5348 16.5487C53.5348 16.6793 53.5828 16.8098 53.6787 16.9069L55.9249 19.1805C56.1887 19.4477 56.3927 19.7573 56.5366 20.1063C56.6776 20.4494 56.7495 20.8136 56.7495 21.19V24.4076C56.7495 24.5472 56.8065 24.6717 56.8965 24.7628C56.9864 24.8538 57.1124 24.9115 57.2473 24.9115H60.4261C60.8009 24.9115 61.1578 24.9813 61.4966 25.124C61.8385 25.2666 62.1444 25.4731 62.4112 25.7432L64.6574 28.0168C64.7533 28.114 64.8823 28.1625 65.0082 28.1625C65.1372 28.1625 65.2631 28.114 65.3591 28.0168L67.6052 25.7432C67.8691 25.4761 68.175 25.2697 68.5199 25.124C68.8587 24.9813 69.2186 24.9115 69.5904 24.9115H72.7691C72.8921 24.9115 73.003 24.866 73.09 24.7961L73.12 24.7628C73.21 24.6717 73.2669 24.5442 73.2669 24.4076V21.19C73.2669 20.8106 73.3359 20.4493 73.4799 20.1063C73.6208 19.7603 73.8247 19.4507 74.0916 19.1805L76.3377 16.9069C76.4337 16.8098 76.4817 16.6793 76.4817 16.5487C76.4817 16.4182 76.4337 16.2907 76.3377 16.1905L74.0916 13.917C73.8277 13.6498 73.6238 13.3402 73.4799 12.9911C73.3389 12.6481 73.2669 12.2839 73.2669 11.9075V8.68988C73.2669 8.55024 73.213 8.42579 73.126 8.33473L73.123 8.33169C73.033 8.24366 72.9101 8.18903 72.7721 8.18903H69.5934C69.2186 8.18903 68.8617 8.11921 68.5229 7.97654C68.178 7.83387 67.8751 7.62746 67.6082 7.3573L65.3621 5.0837L65.3651 5.08066C65.2691 4.98656 65.1402 4.93799 65.0112 4.93799C64.8823 4.93799 64.7563 4.98656 64.6604 5.0837L62.4142 7.3573C62.1504 7.62442 61.8445 7.83084 61.4996 7.97654C61.1548 8.11921 60.7979 8.18903 60.423 8.18903ZM69.1679 10.6903L59.2178 20.7621C58.7679 21.2175 58.7679 21.9581 59.2178 22.4165C59.6676 22.8718 60.3993 22.8718 60.8521 22.4165L65.7282 17.4807L65.7672 17.4564C65.9621 17.3441 66.1091 17.1802 66.208 16.992L70.8052 12.3386C71.2551 11.8833 71.2551 11.1426 70.8052 10.6842C70.3494 10.232 69.6177 10.232 69.1679 10.6903ZM16.6259 16.4487L27.6163 10.0256V10.0226L39.6568 2.98627C39.6898 2.96806 39.7228 2.95895 39.7588 2.95895C39.7918 2.95895 39.8278 2.96806 39.8608 2.98627L45.4236 6.23729L22.2844 19.757L16.6259 16.4487ZM47.7207 7.58523L51.8351 9.98938C51.8531 10.0015 51.8741 10.0137 51.8951 10.0258L53.4155 10.9152L49.5351 13.1827L49.5261 13.1888L29.7817 24.727C29.3978 24.9152 29.1309 25.3159 29.1309 25.7773V34.8078L27.1427 32.5706L27.1397 32.5737C26.8278 32.2216 26.3211 32.085 25.8622 32.2701L23.4361 33.2506V21.773L46.6797 8.18954C46.6977 8.1774 46.7187 8.16526 46.7367 8.15312L47.7207 7.58523Z" fill="#3F1000"/>
</svg>
